<?xml version="1.0" encoding="UTF-8" standalone="no"?>
<!DOCTYPE svg PUBLIC "-//W3C//DTD SVG 1.1//EN" "http://www.w3.org/Graphics/SVG/1.1/DTD/svg11.dtd">
<svg width="100%" height="100%" viewBox="0 0 2200 1556" version="1.1" xmlns="http://www.w3.org/2000/svg" xmlns:xlink="http://www.w3.org/1999/xlink" xml:space="preserve" xmlns:serif="http://www.serif.com/" style="fill-rule:evenodd;clip-rule:evenodd;stroke-linejoin:round;stroke-miterlimit:2;">
    <path d="M1193,603L1193,872C1195.9,865.081 1194,854.48 1194,847L1194,604L1235,604C1230.79,602.231 1225.54,603 1221,603L1193,603Z" style="fill:rgb(50,73,151);fill-rule:nonzero;"/>
    <path d="M1194,604L1194,835C1194,860.204 1188.33,894.091 1219,903.949C1224.25,905.636 1229.53,905.996 1235,906C1232.45,895.288 1234,882.976 1234,872L1234,604L1194,604Z" style="fill:rgb(32,58,143);fill-rule:nonzero;"/>
    <path d="M431,638.465C418.241,640.765 405.958,647.586 395,654.204C356.984,677.162 325.07,721.422 323.039,767C322.031,789.637 322.889,811.443 331.064,833C332.739,837.416 336.815,852.221 342.985,851.534C350.122,850.739 344.258,836.041 343.35,832C337.981,808.104 342.735,783.288 352.012,761C363.398,733.642 387.613,711.053 415,700.204C429.16,694.594 449.207,695.856 459.812,683.985C470.622,671.883 467.713,650.209 453.996,641.562C447.499,637.467 438.407,637.129 431,638.465Z" style="fill:rgb(247,166,0);fill-rule:nonzero;"/>
    <path d="M502,642C502.338,652.318 517.99,653.997 526,657.781C546.466,667.448 563.848,682.169 576.481,701C590.829,722.388 598.589,749.2 595.826,775C593.928,792.728 579.441,812.694 589.367,830C600.792,849.921 632.996,848.063 640.895,826C646.87,809.312 645.403,789.184 643.285,772C634.554,701.176 574.934,642.008 502,642Z" style="fill:rgb(247,166,0);fill-rule:nonzero;"/>
    <path d="M570,660L571,661L570,660Z" style="fill:rgb(251,203,111);fill-rule:nonzero;"/>
    <path d="M572,661L573,662L572,661Z" style="fill:rgb(251,213,139);fill-rule:nonzero;"/>
    <path d="M573,662L574,663L573,662Z" style="fill:rgb(250,191,77);fill-rule:nonzero;"/>
    <path d="M570,692L571,693L570,692Z" style="fill:rgb(250,199,100);fill-rule:nonzero;"/>
    <path d="M1767,727.464C1746.63,731.065 1733.73,748.263 1727.81,767C1725.59,774.033 1724.56,780.689 1723.83,788C1720.5,821.294 1729.12,870.921 1770,875.816C1775.02,876.416 1781.01,876.49 1786,875.675C1808.3,872.032 1822.82,852.978 1827.87,832C1829.23,826.369 1829.66,820.716 1830.42,815C1834.82,781.939 1825.51,729.999 1784,727.089C1778.54,726.707 1772.4,726.509 1767,727.464Z" style="fill:none;"/>
    <path d="M572,695L573,696L572,695Z" style="fill:rgb(252,220,156);fill-rule:nonzero;"/>
    <path d="M1345,807L1461,807C1461.95,799.935 1464.15,793.14 1464.83,786C1466.74,765.983 1463.63,744.892 1452.25,728C1419.75,679.751 1339.58,687.307 1307.43,732C1292.69,752.483 1288,775.23 1288,800C1288,839.522 1302.43,878.866 1339,898.691C1366.49,913.596 1399.43,912.088 1429,904.87C1436.24,903.104 1443.16,900.504 1450,897.573C1452.58,896.465 1456.45,895.212 1457.93,892.61C1459.13,890.495 1458.13,888.087 1457.41,886C1455.56,880.64 1453.53,875.233 1451.3,870.019C1450.42,867.961 1449.38,865.808 1446.89,865.531C1442.36,865.026 1436.06,869.237 1432,870.986C1424.3,874.303 1415.35,876.931 1407,877.826C1400.04,878.572 1391.93,879.76 1385,878.536C1348.44,872.076 1332.39,838.689 1329.17,805C1326.09,772.804 1342.87,728.8 1380,726.09C1400.25,724.613 1417.62,739.152 1423.28,758C1424.82,763.15 1426.66,771.665 1424.4,776.852C1422.93,780.213 1419.1,779.978 1416,779.999C1409,780.047 1402,780 1395,780C1386.71,780 1377.1,778.669 1369,780.529C1356.94,783.298 1348.26,795.682 1345,807Z" style="fill:rgb(32,58,143);fill-rule:nonzero;"/>
    <path d="M1657,897C1655.92,889.706 1652.53,882.868 1649.95,876C1649.1,873.746 1648.19,869.609 1645.58,868.732C1643.21,867.935 1640.13,869.756 1638,870.62C1632.83,872.724 1627.46,874.601 1622,875.789C1615.01,877.309 1607.19,879.348 1600,878.906C1584.38,877.946 1570.03,867.621 1561.52,855C1556.61,847.714 1553.7,839.417 1551.42,831C1542.48,797.952 1548.03,748.999 1582,731.971C1591.59,727.162 1602.43,726.365 1613,727.089C1620.36,727.593 1627.83,729.174 1635,726.437C1642.01,723.757 1651.81,713.617 1650.5,705.225C1650.03,702.231 1646.45,701.53 1644,700.896C1637.06,699.102 1630.05,697.852 1623,696.615C1591.7,691.122 1557.48,699.262 1534.09,721.286C1514.69,739.555 1505.69,765.082 1503.91,791C1501.06,832.531 1513.13,875.016 1551,897.547C1583.89,917.115 1623.57,910.713 1657,897Z" style="fill:rgb(32,58,143);fill-rule:nonzero;"/>
    <path d="M573,696L574,697L573,696Z" style="fill:rgb(251,200,107);fill-rule:nonzero;"/>
    <path d="M993,736C1000.43,735.255 1007.72,731.885 1015,730.13C1032.15,726 1050.97,724.699 1067,733.324C1096.7,749.31 1090,792.081 1090,820C1090,828.26 1092.19,840.188 1089.4,848C1087.8,852.483 1083.36,856.695 1079.99,859.911C1069.32,870.079 1053.22,879.17 1038,878.741C1021.94,878.287 1004.53,863.238 1007.33,846C1007.83,842.914 1008.97,839.784 1010.38,837C1019.95,818.031 1039.74,821.103 1056,813.179C1066.84,807.897 1072.98,796.743 1074,785C1055.16,785.809 1036.18,789.348 1018,794.289C1006.4,797.441 994.745,801.734 985,808.924C955.735,830.517 957.89,874.282 985,896.671C1008.55,916.119 1050.11,914.258 1074,896.841C1080.75,891.921 1087.36,886.655 1091,879C1094.25,887.618 1095.73,899.315 1105,903.972C1108.24,905.602 1112.49,905 1116,905C1123.28,905 1130.88,904.305 1138,906C1136.69,896.285 1134.1,886.8 1133.17,877C1130.81,852.201 1132,826.915 1132,802C1132,773.842 1132.78,743.857 1113.56,721C1090.62,693.706 1047.47,691.349 1015,699.13C1007.52,700.922 1000.27,703.086 993,705.551C990.541,706.385 986.53,707 985.132,709.499C983.866,711.762 985.536,714.843 986.319,717C988.602,723.288 991.456,729.485 993,736Z" style="fill:rgb(32,58,143);fill-rule:nonzero;"/>
    <path d="M739,698C745.687,700.806 755.767,699 763,699C756.313,696.194 746.233,698 739,698M920,698C925.959,700.501 934.564,699 941,699C935.041,696.5 926.436,698 920,698Z" style="fill:rgb(240,241,248);fill-rule:nonzero;"/>
    <path d="M740,700C744.658,719.656 754.391,739.113 761.576,758C774.622,792.296 787.474,826.667 800.424,861C805.97,875.704 813.376,890.708 817,906L849,906C852.686,906 859.193,907.232 862.351,904.972C866.116,902.279 867.495,894.159 869.05,890C873.669,877.65 878.444,865.356 883.05,853C895.874,818.602 909.226,784.398 922.05,750C927.989,734.07 937.512,716.849 940,700C928.131,700 914.464,698.266 904,705.109C888.03,715.551 884.312,736.065 878.667,753C869.653,780.042 860.763,807.119 851.345,834C847.727,844.325 845.767,856.262 841,866C829.151,829.585 816.777,793.33 804.667,757C799.448,741.343 796.053,719.826 782.91,708.669C770.449,698.091 755.241,700 740,700Z" style="fill:rgb(32,58,143);fill-rule:nonzero;"/>
    <path d="M1767,694.424C1749.93,696.693 1734.31,701.077 1720,711.039C1701.8,723.706 1687.02,744.393 1681.48,766C1678.31,778.348 1678,790.349 1678,803C1678,831.784 1686.1,861.024 1707.04,881.961C1728.77,903.692 1761.18,911.734 1791,907.718C1816.77,904.246 1840.21,891.933 1856.1,871C1872.03,850.02 1877,825.762 1877,800C1877,775.779 1872.09,751.967 1857.51,732C1843.86,713.303 1824.36,701.506 1802,696.576C1790.78,694.102 1778.45,692.902 1767,694.424ZM1767,727.464C1746.63,731.065 1733.73,748.263 1727.81,767C1725.59,774.033 1724.56,780.689 1723.83,788C1720.5,821.294 1729.12,870.921 1770,875.816C1775.02,876.416 1781.01,876.49 1786,875.675C1808.3,872.032 1822.82,852.978 1827.87,832C1829.23,826.369 1829.66,820.716 1830.42,815C1834.82,781.939 1825.51,729.999 1784,727.089C1778.54,726.707 1772.4,726.509 1767,727.464Z" style="fill:rgb(32,58,143);"/>
    <path d="M387,865.468C368.453,868.936 358.331,889.026 366.832,906C371.173,914.669 380.2,920.643 388,925.971C423.084,949.936 468.373,959.146 510,949.986C537.34,943.97 564.532,930.554 583.911,909.996C590.094,903.437 596.869,895.962 601.197,888C602.539,885.531 604.189,880.188 599.852,879.582C595.887,879.028 592.546,883.562 590,885.911C583.017,892.357 575.124,897.891 567,902.796C545.667,915.677 516.992,923.762 492,919.385C469.758,915.489 449.621,907.892 432,893.385C417.969,881.833 408.385,861.469 387,865.468Z" style="fill:rgb(247,166,0);fill-rule:nonzero;"/>
</svg>
