<?xml version="1.0" encoding="utf-8"?>
<!-- Generator: Adobe Illustrator 15.1.0, SVG Export Plug-In . SVG Version: 6.00 Build 0)  -->
<!DOCTYPE svg PUBLIC "-//W3C//DTD SVG 1.1//EN" "http://www.w3.org/Graphics/SVG/1.1/DTD/svg11.dtd">
<svg version="1.1" id="Calque_1" xmlns="http://www.w3.org/2000/svg" xmlns:xlink="http://www.w3.org/1999/xlink" x="0px" y="0px"
	 width="171.334px" height="142px" viewBox="0 0 171.334 142" enable-background="new 0 0 171.334 142" xml:space="preserve">
<g>
	<path fill="#008BCB" d="M111.107,74.607c-0.55-5.538-6.983-19.709-8.473-21.675c-3.058-4.035-15.813,2.813-23.511-6.824
		c0.408-1.757,1.218-3.885,1.986-5.309c1.104-2.046,1.548-2.517,1.107-5.517c2.232-1.292,4.771-2.621,6.957-3.944
		c1.745-1.055,4.66-2.789,5.667-4.354c-2.904-0.285-10.795,3.936-14.392,5.066c-3.684,1.158-3.69,0.878-5.623,3.51
		c-2.604,3.549-1.521,1.998-1.195,3.745l0.063,1.18c-2.836,0.624-3.671-0.256-5.279-1.151c-0.689-0.383-0.368-0.181-1.214-0.594
		c-1.62-0.791-3.652-1.739-5.163-3.539c-4.573-5.445-2.585-9.361-4.89-14.94c-4.121-0.625-27.522-1.397-28.661,0.04
		c-3.341,4.217,5.727,6.432,10.9,9.008c2.483,1.237,3.542,0.374,4.805,1.909c2.132,2.597,1.856,3.603,2.68,6.837
		c0.676,2.652,1.279,0.974,1.918,3.177c1.563,5.393,2.469,3.984,2.976,4.367c0.455,0.343,0.147,0.108,0.552,0.639
		c1.814,2.378,2.49,1.346,3.713,2.711c0.433,0.483,2.688,4.446,5.688,4.731c-0.666,1.367-0.479,2.104-1.308,3.596
		c-3.019,5.427-4.888,4.5-0.917,9.566c6.884-2.869,4.71-6.397,8.605-7.557c3.923-1.168,4.693,0.967,5.429,1.564
		c3.333,2.708,4.252,1.938,6.016,2.472l9.049,1.739c1.188,0.204,1.534-0.018,2.63,0.127c1.024,0.135-0.037-0.121,1.017,0.273
		c0.261,0.098,0.642,0.344,0.902,0.457c2.638,1.145,0.884-0.596,3.612,2.816c0.88,1.1,1.098,1.132,1.804,1.861
		c1.476,1.523,2.283,3.137,3.343,3.164c0.784,0.588,3.117,4.363,5.264,6.68h3.979C111.362,79.238,111.379,77.369,111.107,74.607z"/>
	<g>
		
			<path fill-rule="evenodd" clip-rule="evenodd" fill="#FFFFFF" stroke="#008BCB" stroke-width="8.5039" stroke-miterlimit="22.9256" d="
			M50.888,124.992c19.42,0,35.26-15.839,35.26-35.258c0-19.42-15.84-35.26-35.26-35.26s-35.259,15.84-35.259,35.26
			C15.629,109.153,31.468,124.992,50.888,124.992z"/>
		
			<path fill-rule="evenodd" clip-rule="evenodd" fill="#FFFFFF" stroke="#00A18F" stroke-width="7.0866" stroke-miterlimit="22.9256" d="
			M50.888,114.391c13.581,0,24.657-11.076,24.657-24.656c0-13.581-11.076-24.658-24.657-24.658S26.23,76.153,26.23,89.734
			C26.23,103.314,37.307,114.391,50.888,114.391z"/>
		
			<path fill-rule="evenodd" clip-rule="evenodd" fill="none" stroke="#80BA27" stroke-width="5.6693" stroke-miterlimit="22.9256" d="
			M50.888,103.789c7.742,0,14.056-6.314,14.056-14.055c0-7.742-6.313-14.057-14.056-14.057c-7.741,0-14.055,6.314-14.055,14.057
			C36.833,97.475,43.146,103.789,50.888,103.789z"/>
	</g>
	<path fill="#FFFFFF" d="M111.144,80.443c-0.517,2.848-2.181,1.94-3.979,0h-61.28v18.582h119.438V80.443H111.144z"/>
	<path fill="#FFFFFF" d="M111.144,80.443h-3.979C108.963,82.384,110.627,83.292,111.144,80.443z"/>
	<g>
		<path fill="#004366" d="M55.455,92.479c0,0.633-0.134,1.188-0.4,1.666c-0.268,0.479-0.629,0.877-1.086,1.196
			s-0.991,0.56-1.603,0.722c-0.611,0.16-1.265,0.241-1.96,0.241c-0.472,0-0.909-0.034-1.313-0.103
			c-0.404-0.068-0.761-0.15-1.07-0.246s-0.567-0.197-0.774-0.303c-0.208-0.105-0.356-0.198-0.448-0.279
			c-0.092-0.08-0.156-0.197-0.195-0.349c-0.038-0.151-0.058-0.37-0.058-0.656c0-0.192,0.007-0.354,0.021-0.484
			c0.014-0.13,0.036-0.236,0.068-0.316c0.031-0.081,0.073-0.138,0.126-0.172c0.053-0.034,0.114-0.051,0.185-0.051
			c0.099,0,0.237,0.051,0.417,0.153c0.179,0.103,0.409,0.216,0.69,0.34c0.28,0.124,0.616,0.237,1.006,0.34
			c0.391,0.102,0.842,0.153,1.354,0.153c0.338,0,0.64-0.036,0.907-0.106c0.267-0.072,0.493-0.173,0.68-0.303
			c0.186-0.13,0.328-0.292,0.427-0.484c0.099-0.192,0.147-0.406,0.147-0.642c0-0.273-0.084-0.507-0.253-0.703
			s-0.389-0.369-0.659-0.521s-0.578-0.294-0.922-0.428c-0.345-0.133-0.699-0.274-1.064-0.423s-0.721-0.318-1.064-0.507
			c-0.345-0.189-0.652-0.416-0.923-0.679s-0.49-0.575-0.658-0.935c-0.169-0.36-0.254-0.791-0.254-1.293
			c0-0.577,0.122-1.084,0.364-1.522c0.242-0.437,0.569-0.8,0.98-1.088c0.411-0.289,0.896-0.504,1.454-0.647s1.151-0.214,1.776-0.214
			c0.323,0,0.646,0.021,0.97,0.065s0.625,0.103,0.906,0.177c0.281,0.075,0.531,0.158,0.749,0.251
			c0.218,0.093,0.361,0.17,0.432,0.232s0.118,0.115,0.143,0.158s0.046,0.101,0.063,0.172s0.029,0.161,0.037,0.27
			c0.007,0.109,0.01,0.244,0.01,0.405c0,0.18-0.005,0.332-0.016,0.456c-0.011,0.125-0.028,0.227-0.053,0.307
			c-0.024,0.081-0.06,0.14-0.105,0.177c-0.046,0.038-0.107,0.056-0.185,0.056s-0.2-0.043-0.368-0.13
			c-0.169-0.087-0.376-0.182-0.622-0.284c-0.246-0.103-0.531-0.196-0.854-0.279c-0.323-0.084-0.678-0.125-1.064-0.125
			c-0.302,0-0.565,0.032-0.79,0.098c-0.226,0.065-0.413,0.155-0.564,0.27c-0.151,0.115-0.264,0.253-0.337,0.415
			c-0.074,0.161-0.111,0.332-0.111,0.512c0,0.267,0.083,0.498,0.248,0.693c0.165,0.195,0.387,0.369,0.664,0.521
			s0.592,0.295,0.943,0.428s0.71,0.274,1.075,0.423s0.724,0.318,1.075,0.507c0.352,0.189,0.664,0.416,0.938,0.679
			c0.273,0.264,0.495,0.574,0.664,0.931S55.455,91.995,55.455,92.479z"/>
		<path fill="#004366" d="M65.659,95.131c0,0.181-0.009,0.331-0.026,0.451c-0.018,0.121-0.044,0.219-0.079,0.294
			c-0.035,0.074-0.079,0.128-0.132,0.163c-0.053,0.033-0.11,0.051-0.174,0.051h-6.852c-0.232,0-0.427-0.061-0.585-0.182
			s-0.237-0.318-0.237-0.591V84.82c0-0.273,0.079-0.47,0.237-0.591c0.158-0.121,0.353-0.182,0.585-0.182h6.81
			c0.063,0,0.119,0.016,0.168,0.046c0.05,0.031,0.092,0.085,0.127,0.163s0.062,0.177,0.079,0.298
			c0.018,0.121,0.026,0.274,0.026,0.46c0,0.174-0.009,0.321-0.026,0.442c-0.018,0.121-0.044,0.219-0.079,0.293
			c-0.035,0.074-0.077,0.129-0.127,0.163c-0.049,0.034-0.104,0.051-0.168,0.051h-4.87v2.941h4.121c0.063,0,0.122,0.017,0.174,0.051
			c0.053,0.034,0.097,0.087,0.132,0.158c0.035,0.072,0.062,0.167,0.079,0.289s0.026,0.269,0.026,0.442
			c0,0.18-0.009,0.329-0.026,0.446c-0.018,0.118-0.044,0.213-0.079,0.284s-0.079,0.123-0.132,0.153
			c-0.052,0.031-0.11,0.046-0.174,0.046h-4.121v3.397h4.912c0.063,0,0.121,0.017,0.174,0.052c0.053,0.033,0.097,0.088,0.132,0.162
			s0.062,0.172,0.079,0.293S65.659,94.951,65.659,95.131z"/>
		<path fill="#004366" d="M79.352,95.234c0,0.143-0.028,0.27-0.084,0.381c-0.057,0.111-0.132,0.205-0.227,0.279
			s-0.208,0.129-0.338,0.162c-0.13,0.035-0.262,0.052-0.396,0.052h-1.18c-0.246,0-0.459-0.021-0.638-0.065
			c-0.18-0.043-0.345-0.122-0.496-0.236c-0.151-0.115-0.297-0.271-0.438-0.466s-0.299-0.448-0.474-0.759l-3.395-5.63
			c-0.197-0.335-0.397-0.696-0.601-1.084c-0.204-0.388-0.387-0.765-0.549-1.131h-0.021c0.027,0.447,0.049,0.892,0.063,1.335
			c0.014,0.443,0.021,0.901,0.021,1.373v6.301c0,0.062-0.02,0.117-0.058,0.167c-0.039,0.05-0.105,0.091-0.2,0.126
			c-0.095,0.033-0.224,0.061-0.385,0.078c-0.162,0.02-0.369,0.028-0.622,0.028c-0.246,0-0.45-0.009-0.611-0.028
			c-0.162-0.018-0.288-0.045-0.38-0.078c-0.091-0.035-0.154-0.076-0.189-0.126s-0.053-0.105-0.053-0.167V84.922
			c0-0.292,0.097-0.51,0.29-0.656c0.193-0.146,0.43-0.219,0.711-0.219h1.486c0.268,0,0.492,0.02,0.675,0.061s0.346,0.107,0.49,0.2
			c0.144,0.093,0.279,0.222,0.406,0.386c0.126,0.164,0.256,0.367,0.39,0.609l2.656,4.402c0.154,0.267,0.308,0.529,0.459,0.786
			c0.15,0.258,0.297,0.515,0.438,0.772c0.14,0.257,0.277,0.51,0.411,0.758c0.133,0.249,0.263,0.497,0.39,0.745h0.011
			c-0.021-0.434-0.037-0.887-0.048-1.359c-0.011-0.471-0.016-0.921-0.016-1.349v-5.649c0-0.062,0.021-0.118,0.063-0.167
			c0.042-0.049,0.112-0.093,0.211-0.13c0.098-0.037,0.228-0.063,0.39-0.079c0.161-0.015,0.369-0.023,0.622-0.023
			c0.238,0,0.438,0.008,0.601,0.023c0.161,0.016,0.286,0.042,0.374,0.079c0.088,0.038,0.149,0.081,0.185,0.13
			c0.035,0.05,0.053,0.105,0.053,0.167V95.234z"/>
		<path fill="#004366" d="M90.409,92.479c0,0.633-0.134,1.188-0.4,1.666c-0.268,0.479-0.629,0.877-1.086,1.196
			s-0.991,0.56-1.603,0.722c-0.611,0.16-1.265,0.241-1.96,0.241c-0.472,0-0.909-0.034-1.313-0.103
			c-0.404-0.068-0.761-0.15-1.07-0.246s-0.567-0.197-0.774-0.303c-0.208-0.105-0.356-0.198-0.448-0.279
			c-0.092-0.08-0.156-0.197-0.195-0.349c-0.038-0.151-0.058-0.37-0.058-0.656c0-0.192,0.007-0.354,0.021-0.484
			c0.014-0.13,0.036-0.236,0.068-0.316c0.031-0.081,0.073-0.138,0.126-0.172c0.053-0.034,0.114-0.051,0.185-0.051
			c0.099,0,0.237,0.051,0.417,0.153c0.179,0.103,0.409,0.216,0.69,0.34c0.28,0.124,0.616,0.237,1.006,0.34
			c0.391,0.102,0.842,0.153,1.354,0.153c0.338,0,0.64-0.036,0.907-0.106c0.267-0.072,0.493-0.173,0.68-0.303
			c0.186-0.13,0.328-0.292,0.427-0.484c0.099-0.192,0.147-0.406,0.147-0.642c0-0.273-0.084-0.507-0.253-0.703
			s-0.389-0.369-0.659-0.521s-0.578-0.294-0.922-0.428c-0.345-0.133-0.699-0.274-1.064-0.423s-0.721-0.318-1.064-0.507
			c-0.345-0.189-0.652-0.416-0.923-0.679s-0.49-0.575-0.658-0.935c-0.169-0.36-0.254-0.791-0.254-1.293
			c0-0.577,0.122-1.084,0.364-1.522c0.242-0.437,0.569-0.8,0.98-1.088c0.411-0.289,0.896-0.504,1.454-0.647s1.151-0.214,1.776-0.214
			c0.323,0,0.646,0.021,0.97,0.065s0.625,0.103,0.906,0.177c0.281,0.075,0.531,0.158,0.749,0.251
			c0.218,0.093,0.361,0.17,0.432,0.232s0.118,0.115,0.143,0.158s0.046,0.101,0.063,0.172s0.029,0.161,0.037,0.27
			c0.007,0.109,0.01,0.244,0.01,0.405c0,0.18-0.005,0.332-0.016,0.456c-0.011,0.125-0.028,0.227-0.053,0.307
			c-0.024,0.081-0.06,0.14-0.105,0.177c-0.046,0.038-0.107,0.056-0.185,0.056s-0.2-0.043-0.368-0.13
			c-0.169-0.087-0.376-0.182-0.622-0.284c-0.246-0.103-0.531-0.196-0.854-0.279c-0.323-0.084-0.678-0.125-1.064-0.125
			c-0.302,0-0.565,0.032-0.79,0.098c-0.226,0.065-0.413,0.155-0.564,0.27c-0.151,0.115-0.264,0.253-0.337,0.415
			c-0.074,0.161-0.111,0.332-0.111,0.512c0,0.267,0.083,0.498,0.248,0.693c0.165,0.195,0.387,0.369,0.664,0.521
			s0.592,0.295,0.943,0.428s0.71,0.274,1.075,0.423s0.724,0.318,1.075,0.507c0.352,0.189,0.664,0.416,0.938,0.679
			c0.273,0.264,0.495,0.574,0.664,0.931S90.409,91.995,90.409,92.479z"/>
		<path fill="#004366" d="M109.679,89.929c0,0.999-0.141,1.893-0.422,2.68c-0.281,0.788-0.699,1.457-1.254,2.006
			c-0.556,0.549-1.242,0.967-2.061,1.256c-0.819,0.289-1.766,0.433-2.841,0.433c-1.062,0-1.987-0.122-2.778-0.367
			c-0.79-0.245-1.449-0.619-1.976-1.122c-0.527-0.502-0.923-1.141-1.187-1.917s-0.395-1.694-0.395-2.755
			c0-0.974,0.14-1.85,0.421-2.629c0.281-0.778,0.699-1.441,1.255-1.987c0.555-0.546,1.242-0.964,2.061-1.256
			c0.818-0.292,1.769-0.437,2.852-0.437c1.033,0,1.944,0.121,2.735,0.363c0.79,0.242,1.451,0.614,1.981,1.117
			s0.931,1.137,1.202,1.903C109.543,87.983,109.679,88.887,109.679,89.929z M106.77,90.06c0-0.633-0.057-1.208-0.169-1.727
			c-0.112-0.518-0.304-0.961-0.574-1.331s-0.631-0.654-1.08-0.856c-0.45-0.202-1.013-0.303-1.687-0.303
			c-0.682,0-1.251,0.113-1.708,0.34s-0.826,0.529-1.106,0.907c-0.281,0.378-0.48,0.821-0.596,1.326
			c-0.116,0.506-0.174,1.041-0.174,1.605c0,0.658,0.056,1.249,0.168,1.772c0.112,0.524,0.303,0.973,0.569,1.345
			c0.268,0.373,0.626,0.656,1.075,0.852c0.45,0.195,1.016,0.294,1.697,0.294s1.251-0.112,1.708-0.336
			c0.456-0.223,0.825-0.527,1.106-0.912s0.479-0.833,0.596-1.345C106.712,91.181,106.77,90.637,106.77,90.06z"/>
		<path fill="#004366" d="M119.661,85.053c0,0.186-0.009,0.343-0.026,0.47c-0.018,0.127-0.046,0.228-0.084,0.302
			c-0.039,0.075-0.083,0.13-0.132,0.167s-0.105,0.056-0.169,0.056h-4.458v3.238h4.185c0.063,0,0.119,0.016,0.168,0.046
			c0.05,0.031,0.094,0.084,0.132,0.158c0.039,0.075,0.067,0.174,0.085,0.298c0.018,0.125,0.026,0.279,0.026,0.465
			s-0.009,0.341-0.026,0.465s-0.046,0.227-0.085,0.307c-0.038,0.081-0.082,0.138-0.132,0.172c-0.049,0.034-0.104,0.051-0.168,0.051
			h-4.185v4.486c0,0.068-0.021,0.127-0.063,0.177s-0.118,0.091-0.227,0.126c-0.109,0.033-0.252,0.061-0.427,0.078
			c-0.176,0.02-0.401,0.028-0.675,0.028c-0.268,0-0.49-0.009-0.67-0.028c-0.179-0.018-0.321-0.045-0.427-0.078
			c-0.105-0.035-0.181-0.076-0.227-0.126s-0.068-0.108-0.068-0.177V84.82c0-0.273,0.079-0.47,0.237-0.591
			c0.158-0.121,0.353-0.182,0.585-0.182h6.419c0.063,0,0.12,0.017,0.169,0.051s0.093,0.09,0.132,0.167
			c0.038,0.078,0.066,0.181,0.084,0.312S119.661,84.867,119.661,85.053z"/>
		<path fill="#004366" d="M134.292,95.066c0,0.186-0.009,0.343-0.026,0.47c-0.018,0.128-0.044,0.232-0.078,0.316
			c-0.036,0.084-0.079,0.144-0.132,0.182c-0.053,0.037-0.114,0.056-0.185,0.056h-6.251c-0.232,0-0.427-0.061-0.585-0.182
			s-0.237-0.318-0.237-0.591V84.383c0-0.062,0.022-0.118,0.068-0.167s0.121-0.09,0.227-0.121c0.105-0.031,0.248-0.056,0.427-0.074
			c0.18-0.019,0.402-0.028,0.67-0.028c0.273,0,0.499,0.009,0.675,0.028c0.175,0.019,0.315,0.043,0.421,0.074
			c0.105,0.031,0.182,0.071,0.227,0.121c0.046,0.05,0.069,0.105,0.069,0.167v9.688h4.29c0.07,0,0.132,0.018,0.185,0.051
			c0.053,0.035,0.096,0.09,0.132,0.168c0.034,0.078,0.061,0.18,0.078,0.307C134.283,94.724,134.292,94.88,134.292,95.066z"/>
		<path fill="#004366" d="M138.71,95.755c0,0.062-0.023,0.118-0.069,0.167c-0.045,0.051-0.121,0.09-0.227,0.121
			s-0.246,0.057-0.421,0.074c-0.176,0.02-0.401,0.028-0.675,0.028c-0.268,0-0.49-0.009-0.67-0.028
			c-0.179-0.018-0.321-0.043-0.427-0.074s-0.181-0.07-0.227-0.121c-0.046-0.049-0.068-0.105-0.068-0.167V84.383
			c0-0.062,0.022-0.118,0.068-0.167s0.123-0.09,0.232-0.121c0.108-0.031,0.251-0.056,0.427-0.074s0.396-0.028,0.664-0.028
			c0.273,0,0.499,0.009,0.675,0.028c0.175,0.019,0.315,0.043,0.421,0.074c0.105,0.031,0.182,0.071,0.227,0.121
			c0.046,0.05,0.069,0.105,0.069,0.167V95.755z"/>
		<path fill="#004366" d="M149.334,85.053c0,0.186-0.009,0.343-0.026,0.47c-0.018,0.127-0.046,0.228-0.084,0.302
			c-0.039,0.075-0.083,0.13-0.132,0.167s-0.105,0.056-0.169,0.056h-4.458v3.238h4.185c0.063,0,0.119,0.016,0.168,0.046
			c0.05,0.031,0.094,0.084,0.132,0.158c0.039,0.075,0.067,0.174,0.085,0.298c0.018,0.125,0.026,0.279,0.026,0.465
			s-0.009,0.341-0.026,0.465s-0.046,0.227-0.085,0.307c-0.038,0.081-0.082,0.138-0.132,0.172c-0.049,0.034-0.104,0.051-0.168,0.051
			h-4.185v4.486c0,0.068-0.021,0.127-0.063,0.177s-0.118,0.091-0.227,0.126c-0.109,0.033-0.252,0.061-0.427,0.078
			c-0.176,0.02-0.401,0.028-0.675,0.028c-0.268,0-0.49-0.009-0.67-0.028c-0.179-0.018-0.321-0.045-0.427-0.078
			c-0.105-0.035-0.181-0.076-0.227-0.126s-0.068-0.108-0.068-0.177V84.82c0-0.273,0.079-0.47,0.237-0.591
			c0.158-0.121,0.353-0.182,0.585-0.182h6.419c0.063,0,0.12,0.017,0.169,0.051s0.093,0.09,0.132,0.167
			c0.038,0.078,0.066,0.181,0.084,0.312S149.334,84.867,149.334,85.053z"/>
		<path fill="#004366" d="M159.675,95.131c0,0.181-0.009,0.331-0.026,0.451c-0.018,0.121-0.044,0.219-0.079,0.294
			c-0.035,0.074-0.079,0.128-0.132,0.163c-0.053,0.033-0.11,0.051-0.174,0.051h-6.852c-0.232,0-0.427-0.061-0.585-0.182
			s-0.237-0.318-0.237-0.591V84.82c0-0.273,0.079-0.47,0.237-0.591c0.158-0.121,0.353-0.182,0.585-0.182h6.81
			c0.063,0,0.119,0.016,0.168,0.046c0.05,0.031,0.092,0.085,0.127,0.163s0.062,0.177,0.079,0.298
			c0.018,0.121,0.026,0.274,0.026,0.46c0,0.174-0.009,0.321-0.026,0.442c-0.018,0.121-0.044,0.219-0.079,0.293
			c-0.035,0.074-0.077,0.129-0.127,0.163c-0.049,0.034-0.104,0.051-0.168,0.051h-4.87v2.941h4.121c0.063,0,0.122,0.017,0.174,0.051
			c0.053,0.034,0.097,0.087,0.132,0.158c0.035,0.072,0.062,0.167,0.079,0.289s0.026,0.269,0.026,0.442
			c0,0.18-0.009,0.329-0.026,0.446c-0.018,0.118-0.044,0.213-0.079,0.284s-0.079,0.123-0.132,0.153
			c-0.052,0.031-0.11,0.046-0.174,0.046h-4.121v3.397h4.912c0.063,0,0.121,0.017,0.174,0.052c0.053,0.033,0.097,0.088,0.132,0.162
			s0.062,0.172,0.079,0.293S159.675,94.951,159.675,95.131z"/>
	</g>
	<path fill="#FFFFFF" d="M80.762,53.734c-0.06-0.041,0.116-0.631-0.173-0.758c-0.002,0.313-0.194,0.5-0.194,0.5
		s-3.938,0.125-4.344-0.065c-0.404-0.19-1.946-1.603-2.008-1.859c-0.063-0.258,0.356-0.806,0.68-1.32
		c0.325-0.513,0.232-1.13,0.274-1.277c0.043-0.147-0.076-0.43-0.227-0.546c-0.151-0.118-0.757,0.035-0.757,0.035
		s0.016-0.116-0.311-0.393c-0.392-0.174-0.489-0.107-0.489-0.107s-0.125-0.612-0.298-0.697c-0.171-0.085-0.478-0.069-0.591,0.034
		c-0.114,0.102-0.709,0.287-1.03,0.804c-0.32,0.515-0.631,1.131-0.891,1.186c-0.259,0.057-2.202-0.714-2.549-0.996
		c-0.349-0.282-1.952-3.881-1.952-3.881s0.084-0.254,0.365-0.393c-0.241-0.205-0.696,0.211-0.759,0.175
		c-1.518-0.813-7.02-3.583-9.145-2.159c0.363,0.62,0.822,1.859,1.047,2.434c0.683,0.422,3.721,1.925,4.828,5.317
		c2.15,0.367,4.439,4.853,4.44,5.332c0.002,0.479,0.096,0.766,0.096,0.766l0.549,2.385l-0.053,0.083l2.418-0.642
		c0,0,0.299-0.041,0.73-0.249c0.43-0.207,5.467-0.103,6.733,1.671c3.536-0.481,6.213,1.6,6.89,2.029
		c0.616-0.048,1.932-0.176,2.648-0.119C87.047,58.49,82.155,54.745,80.762,53.734z"/>
</g>
<path fill-rule="evenodd" clip-rule="evenodd" fill="#FFFFFF" stroke="#008BCB" stroke-width="8.5039" stroke-miterlimit="22.9256" d="
	M15.629,89.734"/>
<path fill-rule="evenodd" clip-rule="evenodd" fill="#FFFFFF" stroke="#008BCB" stroke-width="8.5039" stroke-miterlimit="22.9256" d="
	M50.889,54.475"/>
<path fill-rule="evenodd" clip-rule="evenodd" fill="#FFFFFF" stroke="#008BCB" stroke-width="8.5039" stroke-miterlimit="22.9256" d="
	M86.147,89.734"/>
</svg>
