<?xml version="1.0" encoding="UTF-8" standalone="no"?>
<!DOCTYPE svg PUBLIC "-//W3C//DTD SVG 1.1//EN" "http://www.w3.org/Graphics/SVG/1.1/DTD/svg11.dtd">
<svg width="100%" height="100%" viewBox="0 0 1688 545" version="1.1" xmlns="http://www.w3.org/2000/svg" xmlns:xlink="http://www.w3.org/1999/xlink" xml:space="preserve" xmlns:serif="http://www.serif.com/" style="fill-rule:evenodd;clip-rule:evenodd;stroke-miterlimit:10;">
    <g id="Layer-1" serif:id="Layer 1" transform="matrix(4.16667,0,0,4.16667,0,0)">
        <text x="8.084px" y="101.732px" style="font-family:'Arial-BoldMT', 'Arial', sans-serif;font-weight:700;font-size:87.742px;fill:rgb(111,111,110);">P<tspan x="59.149px 115.056px 175.846px 199.533px 255.44px 272.359px 328.266px " y="101.732px 101.732px 101.732px 101.732px 101.732px 101.732px 101.732px ">RO BIRD</tspan></text>
        <g transform="matrix(1,0,0,1,121.94,53.3706)">
            <path d="M0,1.353C5.434,2.507 32.158,4.574 34.051,3.767C35.286,3.259 32.885,3.798 33.146,2.884C33.408,1.97 32.537,1.888 32.713,1.07C32.887,0.251 32.503,-0.124 32.564,-0.663C32.627,-1.196 32.295,-0.673 32.197,-1.829C32.099,-2.983 32.851,-2.821 32.545,-3.679C32.241,-4.533 32.144,-5.286 32.361,-6.753C32.579,-8.224 31.694,-8.565 32.215,-9.7C32.732,-10.837 32.518,-12.04 32.846,-12.878C33.174,-13.714 34.518,-14.706 34.518,-14.706C34.518,-14.706 33.525,-14.819 33.697,-15.747C33.871,-16.672 35.769,-17.401 35.769,-17.401C35.769,-17.401 34.699,-18.18 35.047,-19.189C35.395,-20.198 37.172,-20.478 37.172,-20.478C37.172,-20.478 36.613,-21.152 37.033,-22.132C37.451,-23.108 37.949,-23.426 39.464,-23.597C39.215,-23.853 38.806,-24.415 39.092,-25.176C39.375,-25.938 40.756,-26.126 41.471,-26.021C41.263,-26.603 41.209,-27.282 41.596,-28.045C41.983,-28.808 43.221,-29.314 43.221,-29.314C43.221,-29.314 42.623,-30.187 43.059,-30.963C43.494,-31.741 44.334,-31.813 44.334,-31.813C44.334,-31.813 44.149,-32.991 44.615,-33.544C45.08,-34.095 46.732,-34.235 46.732,-34.235C46.732,-34.235 46.002,-36.191 46.501,-36.988C46.996,-37.787 48.702,-37.175 48.702,-37.175C48.702,-37.175 45.395,-38.651 45.77,-39.56C46.145,-40.466 50.782,-38.83 50.782,-38.83L55.974,-36.497C55.974,-36.497 50.282,-42.364 50.79,-43.085C51.298,-43.808 53.156,-43.063 54.205,-42.081C55.256,-41.099 59.397,-37.606 61.244,-36.28C60.772,-37.98 57.421,-44.954 57,-46.201C56.578,-47.448 57.143,-48.126 58.129,-48.147C59.119,-48.165 63.051,-39.696 63.563,-38.62C63.989,-38.591 62.905,-46.169 62.813,-47.435C62.723,-48.699 63.088,-49.449 63.76,-49.363C64.431,-49.277 67.668,-37.148 68.248,-35.689C68.689,-35.634 68.469,-41.631 69.42,-41.521C70.366,-41.41 71.62,-32.987 71.727,-31.73C71.834,-30.473 72.532,-25.704 72.592,-25.11C72.652,-24.515 72.6,-23.838 72.782,-22.677C72.964,-21.513 73.078,-21.261 73.113,-20.636C73.149,-20.012 73.176,-17.473 72.762,-15.292C72.348,-13.109 70.795,-9.303 70.572,-7.985C70.352,-6.667 70.169,2.246 70.169,2.246C70.169,2.246 72.493,2.964 74.082,4.304C76.361,5.388 77.24,5.638 77.934,5.976C78.623,6.316 79.792,6.378 80.999,7.24C82.203,8.097 83.082,9.187 83.226,10.099C83.858,10.634 84.401,11.435 84.447,13.099C84.963,14.011 84.43,14.718 84.287,15.011C83.451,14.228 82.515,14.287 82.268,14.082C82.021,13.871 79.984,15.47 79.984,15.47L78.224,16.544C78.224,16.544 81.95,20.708 82.729,21.71C83.51,22.71 83.512,24.953 84.01,25.783C84.512,26.611 84.386,26.763 84.683,27.277C84.979,27.789 85.634,29.904 86.137,30.605C86.641,31.304 87.834,33.203 87.6,33.519C87.366,33.837 86.154,33.982 85.194,33.337C85.126,34.763 86.056,38.066 85.48,38.874C84.903,39.679 82.081,38.039 82.081,38.039C82.081,38.039 82.325,46.154 81.339,46.753C80.354,47.351 78.723,45.806 78.555,44.441C78.387,43.076 78.416,41.207 77.967,39.683C77.313,39.476 76.086,50.517 75.014,50.658C73.941,50.802 73.693,48.181 73.693,48.181C73.693,48.181 73.6,39.287 72.932,39.185C72.262,39.082 69.316,49.724 68.262,49.566C67.208,49.412 67.365,48.73 67.189,46.998C67.016,45.267 66.521,44.542 67.655,42.406C67.137,41.023 65.813,41.585 64.9,40.755C63.984,39.925 63.475,39.804 63.09,38.724C62.21,38.908 59.654,36.457 59.572,35.654C58.922,35.607 57.012,34.332 56.891,33.402C55.889,33.195 54.649,31.964 54.524,31.498C53.93,31.322 52.523,30.794 52.029,30.414C51.535,30.035 50.875,29.371 50.652,28.914C50.29,28.607 49.15,29.191 48.355,28.708C47.557,28.228 46.773,27.146 46.773,27.146C46.773,27.146 45.015,27.421 44.482,26.974C43.952,26.527 43.053,25.191 42.402,24.652C41.752,24.109 41.073,22.669 40.652,22.179C40.229,21.689 39.98,21.257 39.98,21.257C39.98,21.257 38.521,20.908 37.92,19.775C37.319,18.642 37.801,18.132 37.813,17.765C37.588,17.578 35.705,17.248 36.354,15.654C35.907,15.279 35.728,15.279 35.234,15.554C34.546,15.943 27.561,18.945 25.882,19.716C24.201,20.486 6.499,26.863 5.486,26.779C4.474,26.695 5.501,24.748 6.218,24.498C5.814,24.152 6.193,23.349 6.421,23.08C6.648,22.81 6.477,22.49 6.551,21.878C6.672,20.874 6.99,20.345 6.99,20.345C6.99,20.345 5.598,20.017 5.529,19.222C5.463,18.427 5.844,17.855 6.214,17.373C5.609,16.953 5.472,16.32 5.414,15.462C5.357,14.605 5.285,14.492 5.493,13.767C5.188,13.509 4.922,12.662 4.783,12.244C4.637,11.794 4.59,11.283 4.65,10.759C4.77,9.748 4.066,9.683 4.145,8.769C4.164,8.541 4.121,8.355 4.045,8.191C3.818,7.701 3.289,7.408 3.235,6.748C3.163,5.869 2.813,6.011 2.732,5.189C1.387,4.812 -0.823,2.531 -0.823,2.531C-0.823,2.531 -2.002,1.447 0,1.353Z" style="fill:rgb(111,111,110);fill-rule:nonzero;stroke:white;stroke-width:10px;"/>
        </g>
        <g transform="matrix(1,0,0,1,121.94,53.3717)">
            <path d="M0,1.351C5.434,2.505 32.158,4.573 34.05,3.766C35.286,3.258 32.885,3.797 33.146,2.883C33.408,1.969 32.536,1.887 32.713,1.069C32.886,0.25 32.502,-0.126 32.564,-0.665C32.627,-1.198 32.294,-0.674 32.196,-1.83C32.098,-2.985 32.85,-2.822 32.545,-3.68C32.241,-4.534 32.143,-5.287 32.361,-6.754C32.579,-8.225 31.694,-8.567 32.215,-9.702C32.732,-10.838 32.517,-12.041 32.845,-12.878C33.174,-13.715 34.517,-14.707 34.517,-14.707C34.517,-14.707 33.524,-14.821 33.697,-15.748C33.87,-16.673 35.768,-17.402 35.768,-17.402C35.768,-17.402 34.699,-18.181 35.047,-19.189C35.395,-20.2 37.172,-20.479 37.172,-20.479C37.172,-20.479 36.613,-21.153 37.032,-22.132C37.451,-23.11 37.949,-23.427 39.463,-23.598C39.215,-23.854 38.805,-24.416 39.091,-25.177C39.375,-25.939 40.755,-26.128 41.471,-26.022C41.262,-26.604 41.209,-27.283 41.595,-28.046C41.983,-28.809 43.221,-29.314 43.221,-29.314C43.221,-29.314 42.623,-30.188 43.058,-30.964C43.494,-31.743 44.333,-31.814 44.333,-31.814C44.333,-31.814 44.149,-32.993 44.614,-33.545C45.08,-34.095 46.731,-34.236 46.731,-34.236C46.731,-34.236 46.001,-36.192 46.5,-36.989C46.995,-37.788 48.702,-37.176 48.702,-37.176C48.702,-37.176 45.394,-38.652 45.77,-39.56C46.144,-40.467 50.782,-38.831 50.782,-38.831L55.973,-36.499C55.973,-36.499 50.282,-42.365 50.79,-43.087C51.297,-43.808 53.155,-43.064 54.205,-42.082C55.255,-41.1 59.397,-37.607 61.244,-36.282C60.772,-37.981 57.42,-44.955 57,-46.202C56.578,-47.449 57.143,-48.128 58.128,-48.148C59.118,-48.167 63.051,-39.697 63.562,-38.622C63.989,-38.591 62.905,-46.17 62.812,-47.435C62.723,-48.7 63.088,-49.45 63.759,-49.364C64.43,-49.278 67.667,-37.149 68.248,-35.691C68.688,-35.635 68.469,-41.632 69.419,-41.522C70.366,-41.411 71.62,-32.988 71.727,-31.731C71.833,-30.474 72.532,-25.706 72.592,-25.111C72.652,-24.516 72.6,-23.839 72.782,-22.677C72.963,-21.514 73.078,-21.261 73.113,-20.637C73.149,-20.013 73.175,-17.474 72.762,-15.293C72.348,-13.11 70.794,-9.304 70.572,-7.986C70.351,-6.668 70.168,2.245 70.168,2.245C70.168,2.245 72.493,2.963 74.082,4.302C76.361,5.387 77.239,5.637 77.933,5.975C78.623,6.315 79.792,6.377 80.999,7.238C82.203,8.096 83.082,9.185 83.225,10.097C83.858,10.632 84.401,11.434 84.447,13.098C84.962,14.01 84.429,14.717 84.287,15.01C83.451,14.227 82.514,14.286 82.267,14.08C82.021,13.87 79.983,15.469 79.983,15.469L78.223,16.543C78.223,16.543 81.95,20.707 82.729,21.709C83.509,22.709 83.511,24.952 84.009,25.782C84.511,26.61 84.385,26.762 84.682,27.276C84.979,27.788 85.633,29.903 86.136,30.604C86.64,31.303 87.833,33.202 87.599,33.518C87.366,33.836 86.154,33.981 85.194,33.336C85.125,34.762 86.055,38.065 85.48,38.873C84.903,39.678 82.081,38.038 82.081,38.038C82.081,38.038 82.325,46.153 81.338,46.752C80.353,47.35 78.723,45.805 78.554,44.44C78.387,43.075 78.415,41.205 77.966,39.682C77.313,39.475 76.085,50.516 75.013,50.657C73.941,50.801 73.692,48.18 73.692,48.18C73.692,48.18 73.599,39.286 72.931,39.184C72.262,39.08 69.316,49.723 68.261,49.565C67.208,49.411 67.365,48.729 67.189,46.997C67.015,45.266 66.52,44.541 67.655,42.405C67.136,41.022 65.813,41.584 64.9,40.754C63.984,39.924 63.474,39.803 63.09,38.723C62.209,38.907 59.654,36.455 59.572,35.653C58.921,35.606 57.011,34.33 56.891,33.401C55.888,33.194 54.649,31.963 54.524,31.497C53.929,31.321 52.523,30.793 52.028,30.413C51.535,30.034 50.875,29.37 50.651,28.913C50.29,28.606 49.149,29.19 48.355,28.707C47.557,28.227 46.773,27.145 46.773,27.145C46.773,27.145 45.014,27.42 44.482,26.973C43.952,26.526 43.053,25.19 42.402,24.651C41.751,24.108 41.073,22.668 40.652,22.178C40.229,21.688 39.98,21.256 39.98,21.256C39.98,21.256 38.521,20.907 37.919,19.774C37.319,18.641 37.8,18.131 37.812,17.764C37.588,17.577 35.705,17.247 36.354,15.653C35.907,15.278 35.727,15.278 35.233,15.553C34.545,15.942 27.56,18.944 25.881,19.715C24.201,20.485 6.499,26.862 5.486,26.778C4.473,26.694 5.5,24.747 6.217,24.497C5.814,24.151 6.193,23.348 6.42,23.079C6.647,22.809 6.476,22.489 6.551,21.877C6.671,20.873 6.99,20.344 6.99,20.344C6.99,20.344 5.597,20.016 5.529,19.221C5.462,18.426 5.843,17.854 6.213,17.372C5.609,16.952 5.471,16.319 5.413,15.461C5.357,14.603 5.285,14.49 5.493,13.766C5.188,13.508 4.921,12.66 4.783,12.242C4.636,11.793 4.589,11.281 4.65,10.758C4.77,9.747 4.066,9.682 4.144,8.768C4.164,8.539 4.121,8.354 4.044,8.189C3.817,7.7 3.289,7.407 3.235,6.747C3.163,5.867 2.812,6.01 2.731,5.188C1.386,4.81 -0.824,2.53 -0.824,2.53C-0.824,2.53 -2.002,1.446 0,1.351" style="fill:rgb(111,111,110);fill-rule:nonzero;"/>
        </g>
    </g>
</svg>
